<?xml version="1.0" encoding="UTF-8" standalone="no"?>
<!-- Created with Inkscape (http://www.inkscape.org/) -->

<svg
   width="51.549046mm"
   height="16.0284mm"
   viewBox="0 0 51.549046 16.028401"
   version="1.1"
   id="svg5"
   xml:space="preserve"
   sodipodi:docname="logoB2.svg"
   inkscape:version="1.2.2 (b0a8486, 2022-12-01)"
   xmlns:inkscape="http://www.inkscape.org/namespaces/inkscape"
   xmlns:sodipodi="http://sodipodi.sourceforge.net/DTD/sodipodi-0.dtd"
   xmlns="http://www.w3.org/2000/svg"
   xmlns:svg="http://www.w3.org/2000/svg"><sodipodi:namedview
     id="namedview7"
     pagecolor="#ffffff"
     bordercolor="#000000"
     borderopacity="0.25"
     inkscape:showpageshadow="2"
     inkscape:pageopacity="0.0"
     inkscape:pagecheckerboard="0"
     inkscape:deskcolor="#d1d1d1"
     inkscape:document-units="mm"
     showgrid="false"
     showguides="true"
     inkscape:zoom="2.8284271"
     inkscape:cx="85.736697"
     inkscape:cy="29.875261"
     inkscape:window-width="1680"
     inkscape:window-height="995"
     inkscape:window-x="0"
     inkscape:window-y="0"
     inkscape:window-maximized="1"
     inkscape:current-layer="layer1" /><defs
     id="defs2" /><g
     inkscape:label="Warstwa 1"
     inkscape:groupmode="layer"
     id="layer1"
     transform="translate(-3.7090381,-2.433482)"><g
       id="g3202"><g
         id="g4478"
         transform="translate(-16.711783,-23.057869)"
         style="stroke-width:0.2;stroke-dasharray:none"><path
           d="m 42.000717,32.213516 q -0.877811,0.709 -1.963016,0.709 -0.73794,0 -1.321539,-0.327973 -0.578776,-0.332796 -0.911572,-0.906749 -0.332797,-0.578776 -0.332797,-1.316716 0,-0.713824 0.308681,-1.268484 0.313504,-0.559484 0.858518,-0.877811 0.545014,-0.318327 1.239546,-0.318327 0.694531,0 1.225076,0.32315 0.535368,0.318327 0.834402,0.887457 0.299035,0.56913 0.299035,1.311893 v 0.139871 h -4.345645 q 0.02894,0.583599 0.318327,1.03215 0.294211,0.448552 0.776525,0.704178 0.482313,0.255626 1.080382,0.255626 0.945334,0 1.736328,-0.641477 z M 37.88176,30.221561 h 3.983909 q -0.02894,-0.578776 -0.289388,-1.017682 -0.255626,-0.438905 -0.689708,-0.684885 -0.434082,-0.250803 -0.993566,-0.250803 -0.559484,0 -1.003212,0.250803 -0.443728,0.250803 -0.709001,0.689709 -0.265272,0.434082 -0.299034,1.012858 z"
           id="path4449"
           style="font-size:9.87778px;font-family:'Kumbh Sans';-inkscape-font-specification:'Kumbh Sans, @wght=200';font-variation-settings:'wght' 200;stroke:#000000;stroke-width:0.2;stroke-dasharray:none" /><path
           d="m 43.22097,32.826054 h -0.501606 l 2.088417,-2.541792 -1.866553,-2.281343 h 0.506429 l 1.61575,1.972662 1.606104,-1.972662 h 0.501606 l -1.856907,2.276519 2.083595,2.546616 h -0.511253 l -1.827968,-2.237935 z"
           id="path4451"
           style="font-size:9.87778px;font-family:'Kumbh Sans';-inkscape-font-specification:'Kumbh Sans, @wght=200';font-variation-settings:'wght' 200;stroke:#000000;stroke-width:0.2;stroke-dasharray:none" /><path
           d="m 48.410663,32.826054 v -7.234703 h 0.395497 v 3.419603 q 0.496783,-1.104498 1.837614,-1.104498 0.964627,0 1.504818,0.578776 0.540191,0.578777 0.540191,1.610927 v 2.729895 H 52.293286 V 30.15886 q 0,-0.89228 -0.458198,-1.393886 -0.453374,-0.501606 -1.268484,-0.501606 -0.81511,0 -1.287777,0.511252 -0.472667,0.50643 -0.472667,1.38424 v 2.667194 z"
           id="path4453"
           style="font-size:9.87778px;font-family:'Kumbh Sans';-inkscape-font-specification:'Kumbh Sans, @wght=200';font-variation-settings:'wght' 200;stroke:#000000;stroke-width:0.2;stroke-dasharray:none" /><path
           d="m 57.897769,32.826054 h -0.327974 l -0.04341,-0.96945 q -0.221864,0.487136 -0.680062,0.776524 -0.458198,0.289388 -1.061089,0.289388 -0.496783,0 -0.897103,-0.197748 -0.395498,-0.197749 -0.622185,-0.535368 -0.226687,-0.342443 -0.226687,-0.771702 0,-0.458198 0.250803,-0.805463 0.250803,-0.352089 0.689708,-0.549838 0.438905,-0.202571 1.008035,-0.202571 0.41479,0 0.805464,0.110932 0.395497,0.110932 0.709001,0.32315 v -0.453375 q 0,-0.49196 -0.192926,-0.839225 -0.188102,-0.352089 -0.535368,-0.540191 -0.342442,-0.192926 -0.805463,-0.192926 -0.395497,0 -0.776525,0.144694 -0.376205,0.139871 -0.689708,0.41479 l -0.16881,-0.347266 q 0.371381,-0.279742 0.810287,-0.424436 0.438905,-0.149517 0.882633,-0.149517 0.573953,0 0.993566,0.241157 0.419613,0.236334 0.6463,0.675239 0.231511,0.438905 0.231511,1.036974 z m -2.049833,-0.265273 q 0.458198,0 0.829579,-0.207395 0.376205,-0.212218 0.598069,-0.578776 0.221864,-0.366558 0.226688,-0.834402 v -0.241157 q -0.327974,-0.24598 -0.699355,-0.371381 -0.366558,-0.125402 -0.771702,-0.125402 -0.694531,0 -1.138259,0.332797 -0.443729,0.332796 -0.443729,0.853694 0,0.332797 0.183279,0.598069 0.183279,0.265273 0.496783,0.419613 0.318327,0.15434 0.718647,0.15434 z"
           id="path4455"
           style="font-size:9.87778px;font-family:'Kumbh Sans';-inkscape-font-specification:'Kumbh Sans, @wght=200';font-variation-settings:'wght' 200;stroke:#000000;stroke-width:0.2;stroke-dasharray:none" /><path
           d="m 63.6373,32.826054 h -0.356912 l -0.0096,-1.027328 q -0.236333,0.545014 -0.699354,0.834402 -0.463021,0.289388 -1.118967,0.289388 -0.950158,0 -1.490349,-0.578776 -0.535368,-0.583599 -0.535368,-1.61575 v -2.725071 h 0.39545 v 2.705778 q 0,0.863342 0.448552,1.360124 0.448551,0.49196 1.234722,0.49196 0.795817,0 1.263661,-0.511252 0.472668,-0.511252 0.472668,-1.36977 v -2.67684 H 63.6373 Z"
           id="path4457"
           style="font-size:9.87778px;font-family:'Kumbh Sans';-inkscape-font-specification:'Kumbh Sans, @wght=200';font-variation-settings:'wght' 200;stroke:#000000;stroke-width:0.2;stroke-dasharray:none" /><path
           d="m 64.987777,32.401618 0.144694,-0.352089 q 0.183279,0.159163 0.395497,0.274919 0.212218,0.115755 0.443729,0.178456 0.236333,0.05788 0.472667,0.05788 0.540191,0 0.882634,-0.284565 0.342442,-0.289388 0.342442,-0.737939 0,-0.32315 -0.16881,-0.525722 -0.168809,-0.202572 -0.438905,-0.337619 -0.265272,-0.135048 -0.564307,-0.255627 -0.313503,-0.135047 -0.612538,-0.284565 -0.299034,-0.15434 -0.491959,-0.395497 -0.192926,-0.245979 -0.192926,-0.63183 0,-0.366559 0.178456,-0.636654 0.178456,-0.270096 0.501606,-0.41479 0.327973,-0.149517 0.757232,-0.149517 0.598069,0 1.167199,0.279742 L 67.66944,28.53829 q -0.135048,-0.08199 -0.308681,-0.139871 -0.173632,-0.0627 -0.361735,-0.09646 -0.183279,-0.03376 -0.356912,-0.03376 -0.458197,0 -0.747585,0.231511 -0.289389,0.226687 -0.289389,0.602892 0,0.255626 0.139871,0.434082 0.144694,0.178456 0.390674,0.313503 0.250803,0.130225 0.573953,0.265273 0.327973,0.139871 0.641477,0.308681 0.313504,0.163986 0.516076,0.429259 0.207394,0.260449 0.207394,0.684885 0,0.409966 -0.207394,0.72347 -0.202572,0.30868 -0.564307,0.487136 -0.361735,0.173633 -0.834402,0.173633 -0.810287,0 -1.480703,-0.520898 z"
           id="path4459"
           style="font-size:9.87778px;font-family:'Kumbh Sans';-inkscape-font-specification:'Kumbh Sans, @wght=200';font-variation-settings:'wght' 200;stroke:#000000;stroke-width:0.2;stroke-dasharray:none" /><path
           d="m 71.831806,32.719945 q -0.409967,0.202571 -0.81511,0.202571 -0.366558,0 -0.6463,-0.163986 -0.274919,-0.163987 -0.429259,-0.463021 -0.15434,-0.303858 -0.15434,-0.704178 v -3.2315 h -0.844049 v -0.356912 h 0.858518 v -1.205784 h 0.381028 v 1.205784 h 1.509641 v 0.356912 h -1.509641 v 3.159153 q 0,0.472667 0.24598,0.762055 0.250803,0.284565 0.660769,0.284565 0.313504,0 0.6463,-0.183279 z"
           id="path4461"
           style="font-size:9.87778px;font-family:'Kumbh Sans';-inkscape-font-specification:'Kumbh Sans, @wght=200';font-variation-settings:'wght' 200;stroke:#000000;stroke-width:0.2;stroke-dasharray:none" /></g><g
         id="g4447"
         transform="translate(-16.711783,-23.057869)"
         style="stroke-width:0.2;stroke-dasharray:none"><path
           d="m 41.746479,40.640726 q -0.332796,0.352089 -0.795817,0.549837 -0.458197,0.192925 -0.993565,0.192925 -0.704177,0 -1.268483,-0.327973 -0.559483,-0.332796 -0.887456,-0.897102 -0.327973,-0.569129 -0.327973,-1.282953 0,-0.713823 0.327973,-1.278129 0.327973,-0.569129 0.887456,-0.897102 0.564306,-0.332796 1.268483,-0.332796 0.530545,0 0.988742,0.197748 0.46302,0.192925 0.80064,0.545014 l -0.24598,0.255626 q -0.289388,-0.299034 -0.684885,-0.467844 -0.395496,-0.168809 -0.84887,-0.168809 -0.593245,0 -1.070735,0.284564 -0.472667,0.279742 -0.747585,0.762055 -0.270096,0.482313 -0.270096,1.099673 0,0.612538 0.270096,1.099674 0.274918,0.482313 0.747585,0.766878 0.47749,0.279741 1.070735,0.279741 0.453374,0 0.84887,-0.168809 0.395497,-0.173633 0.684885,-0.467844 z"
           id="path4418"
           style="font-size:9.87777px;font-family:'Kumbh Sans';-inkscape-font-specification:'Kumbh Sans, @wght=200';font-variation-settings:'wght' 200;letter-spacing:0.105833px;stroke:#000000;stroke-width:0.2;stroke-dasharray:none" /><path
           d="m 45.286381,41.383488 q -0.704177,0 -1.268484,-0.327973 -0.559483,-0.332796 -0.887456,-0.897102 -0.327972,-0.569129 -0.327972,-1.282953 0,-0.713823 0.327972,-1.278129 0.327973,-0.569129 0.887456,-0.897102 0.564307,-0.332796 1.268484,-0.332796 0.709,0 1.268483,0.332796 0.559483,0.327973 0.882633,0.897102 0.323149,0.564306 0.323149,1.278129 0,0.713824 -0.323149,1.282953 -0.32315,0.564306 -0.882633,0.897102 -0.559483,0.327973 -1.268483,0.327973 z m 0,-0.361735 q 0.588421,0 1.056265,-0.279741 0.467844,-0.284565 0.737939,-0.766878 0.274918,-0.487136 0.274918,-1.099674 0,-0.612537 -0.274918,-1.09485 -0.270095,-0.487136 -0.737939,-0.766878 -0.467844,-0.284564 -1.056265,-0.284564 -0.588422,0 -1.061089,0.284564 -0.472667,0.279742 -0.747585,0.766878 -0.270096,0.482313 -0.270096,1.09485 0,0.612538 0.270096,1.099674 0.274918,0.482313 0.747585,0.766878 0.472667,0.279741 1.061089,0.279741 z"
           id="path4420"
           style="font-size:9.87777px;font-family:'Kumbh Sans';-inkscape-font-specification:'Kumbh Sans, @wght=200';font-variation-settings:'wght' 200;letter-spacing:0.105833px;stroke:#000000;stroke-width:0.2;stroke-dasharray:none" /><path
           d="m 53.446841,41.287025 h -0.395497 v -2.705776 q 0,-0.86334 -0.458197,-1.355299 -0.458198,-0.496782 -1.258837,-0.496782 -0.810286,0 -1.292599,0.511251 -0.47749,0.506429 -0.47749,1.369769 v 2.676837 h -0.395497 v -4.82313 h 0.361735 l 0.0096,1.03215 q 0.241157,-0.55466 0.709,-0.839224 0.467844,-0.289388 1.138259,-0.289388 0.964626,0 1.50964,0.583599 0.549837,0.578775 0.549837,1.606102 z"
           id="path4422"
           style="font-size:9.87777px;font-family:'Kumbh Sans';-inkscape-font-specification:'Kumbh Sans, @wght=200';font-variation-settings:'wght' 200;letter-spacing:0.105833px;stroke:#000000;stroke-width:0.2;stroke-dasharray:none" /><path
           d="m 57.502817,41.180917 q -0.409966,0.202571 -0.815109,0.202571 -0.366558,0 -0.646299,-0.163986 -0.274918,-0.163987 -0.429259,-0.463021 -0.15434,-0.303857 -0.15434,-0.704177 v -3.231497 h -0.844048 v -0.356912 h 0.858518 v -1.205782 h 0.381027 v 1.205782 h 1.50964 v 0.356912 h -1.50964 v 3.15915 q 0,0.472667 0.24598,0.762055 0.250802,0.284564 0.660768,0.284564 0.313504,0 0.6463,-0.183279 z"
           id="path4424"
           style="font-size:9.87777px;font-family:'Kumbh Sans';-inkscape-font-specification:'Kumbh Sans, @wght=200';font-variation-settings:'wght' 200;letter-spacing:0.105833px;stroke:#000000;stroke-width:0.2;stroke-dasharray:none" /><path
           d="m 62.383551,41.287025 h -0.327973 l -0.04341,-0.969449 q -0.221864,0.487136 -0.680062,0.776524 -0.458197,0.289388 -1.061088,0.289388 -0.496783,0 -0.897102,-0.197748 -0.395497,-0.197749 -0.622184,-0.535368 -0.226687,-0.342442 -0.226687,-0.771701 0,-0.458197 0.250802,-0.805462 0.250803,-0.352089 0.689708,-0.549837 0.438905,-0.202572 1.008034,-0.202572 0.414789,0 0.805463,0.110932 0.395497,0.110932 0.709,0.32315 v -0.453374 q 0,-0.491959 -0.192925,-0.839225 -0.188102,-0.352088 -0.535368,-0.54019 -0.342442,-0.192925 -0.805462,-0.192925 -0.395497,0 -0.776524,0.144693 -0.376204,0.139871 -0.689708,0.41479 l -0.168809,-0.347266 q 0.371381,-0.279741 0.810285,-0.424435 0.438905,-0.149517 0.882633,-0.149517 0.573953,0 0.993565,0.241156 0.419612,0.236334 0.646299,0.675238 0.231511,0.438905 0.231511,1.036973 z M 60.33372,41.021753 q 0.458198,0 0.829579,-0.207394 0.376204,-0.212218 0.598068,-0.578776 0.221864,-0.366558 0.226687,-0.834401 v -0.241157 q -0.327973,-0.24598 -0.699354,-0.371381 -0.366558,-0.125401 -0.771701,-0.125401 -0.69453,0 -1.138258,0.332796 -0.443728,0.332796 -0.443728,0.853694 0,0.332796 0.183279,0.598068 0.183279,0.265272 0.496782,0.419612 0.318327,0.15434 0.718646,0.15434 z"
           id="path4426"
           style="font-size:9.87777px;font-family:'Kumbh Sans';-inkscape-font-specification:'Kumbh Sans, @wght=200';font-variation-settings:'wght' 200;letter-spacing:0.105833px;stroke:#000000;stroke-width:0.2;stroke-dasharray:none" /><path
           d="m 68.002222,40.640726 q -0.332796,0.352089 -0.795817,0.549837 -0.458197,0.192925 -0.993565,0.192925 -0.704177,0 -1.268483,-0.327973 -0.559483,-0.332796 -0.887456,-0.897102 -0.327973,-0.569129 -0.327973,-1.282953 0,-0.713823 0.327973,-1.278129 0.327973,-0.569129 0.887456,-0.897102 0.564306,-0.332796 1.268483,-0.332796 0.530545,0 0.988742,0.197748 0.46302,0.192925 0.80064,0.545014 l -0.24598,0.255626 q -0.289388,-0.299034 -0.684885,-0.467844 -0.395496,-0.168809 -0.84887,-0.168809 -0.593245,0 -1.070735,0.284564 -0.472667,0.279742 -0.747585,0.762055 -0.270096,0.482313 -0.270096,1.099673 0,0.612538 0.270096,1.099674 0.274918,0.482313 0.747585,0.766878 0.47749,0.279741 1.070735,0.279741 0.453374,0 0.84887,-0.168809 0.395497,-0.173633 0.684885,-0.467844 z"
           id="path4428"
           style="font-size:9.87777px;font-family:'Kumbh Sans';-inkscape-font-specification:'Kumbh Sans, @wght=200';font-variation-settings:'wght' 200;letter-spacing:0.105833px;stroke:#000000;stroke-width:0.2;stroke-dasharray:none" /><path
           d="m 71.850804,41.180917 q -0.409966,0.202571 -0.815109,0.202571 -0.366558,0 -0.6463,-0.163986 -0.274918,-0.163987 -0.429258,-0.463021 -0.154341,-0.303857 -0.154341,-0.704177 v -3.231497 h -0.844047 v -0.356912 h 0.858517 v -1.205782 h 0.381027 v 1.205782 h 1.50964 v 0.356912 h -1.50964 v 3.15915 q 0,0.472667 0.24598,0.762055 0.250802,0.284564 0.660769,0.284564 0.313503,0 0.646299,-0.183279 z"
           id="path4430"
           style="font-size:9.87777px;font-family:'Kumbh Sans';-inkscape-font-specification:'Kumbh Sans, @wght=200';font-variation-settings:'wght' 200;letter-spacing:0.105833px;stroke:#000000;stroke-width:0.2;stroke-dasharray:none" /></g><g
         id="g4314"
         transform="translate(-16.12267,-23.057869)"
         style="stroke-width:0.6;stroke-dasharray:none"><circle
           style="font-variation-settings:'wght' 200;fill:#000000;fill-opacity:0;stroke:#000000;stroke-width:0.6;stroke-dasharray:none;stroke-opacity:1"
           id="path554"
           cx="26.702705"
           cy="34.648754"
           r="6.5709972" /><path
           style="font-variation-settings:'wght' 200;fill:#000000;fill-opacity:0;stroke:#000000;stroke-width:0.6;stroke-dasharray:none;stroke-opacity:1"
           d="m 22.137246,30.083296 9.130917,9.130916"
           id="path1312" /><path
           style="font-variation-settings:'wght' 200;fill:#000000;fill-opacity:0;stroke:#000000;stroke-width:0.6;stroke-dasharray:none;stroke-opacity:1"
           d="m 31.268162,30.083296 -9.130915,9.130917"
           id="path1312-2" /></g></g></g></svg>
